<?xml version="1.0" standalone="no"?>
<!DOCTYPE svg PUBLIC "-//W3C//DTD SVG 20010904//EN"
 "http://www.w3.org/TR/2001/REC-SVG-20010904/DTD/svg10.dtd">
<svg version="1.0" xmlns="http://www.w3.org/2000/svg"
 width="238.000000pt" height="238.000000pt" viewBox="0 0 238.000000 238.000000"
 preserveAspectRatio="xMidYMid meet">
<metadata>
Created by potrace 1.14, written by Peter Selinger 2001-2017
</metadata>
<g transform="translate(0.000000,238.000000) scale(0.100000,-0.100000)"
fill="#000000" stroke="none">
<path d="M940 2366 c-6 -6 -10 -15 -10 -22 0 -7 -8 -11 -17 -9 -10 2 -18 4
-18 5 0 1 -8 3 -18 5 -9 2 -15 -1 -11 -6 3 -5 10 -6 16 -3 7 4 8 2 4 -5 -4 -6
-11 -9 -15 -7 -14 9 -61 15 -60 8 3 -20 -2 -25 -11 -12 -8 12 -10 10 -10 -9 0
-23 -1 -23 -18 -8 -15 14 -19 15 -19 2 0 -8 5 -11 10 -8 6 3 7 1 3 -5 -5 -8
-13 -9 -24 -3 -20 10 -42 4 -42 -11 0 -6 7 -4 17 3 15 13 15 12 3 -8 -13 -20
-15 -20 -27 -5 -11 15 -12 14 -8 -8 4 -23 3 -23 -9 -7 -14 18 -32 24 -21 7 6
-9 -8 -14 -27 -11 -5 0 -8 -4 -8 -10 0 -5 -6 -7 -12 -3 -10 6 -10 5 -1 -7 10
-12 8 -15 -13 -17 -30 -2 -46 -11 -40 -21 3 -3 -3 -8 -12 -9 -43 -4 -62 -9
-69 -17 -5 -4 -2 -5 5 -1 6 4 12 2 12 -4 0 -6 11 -4 25 6 24 15 25 15 19 0 -4
-9 -9 -14 -12 -11 -3 3 -14 -3 -24 -12 -10 -9 -29 -18 -40 -20 -26 -4 -29 -6
-32 -30 -2 -10 -9 -18 -17 -19 -34 -2 -38 -5 -33 -19 5 -11 2 -13 -10 -9 -12
4 -16 0 -16 -15 0 -12 -5 -21 -11 -21 -5 0 -7 6 -3 13 4 6 -4 2 -18 -11 -17
-15 -24 -31 -22 -45 2 -12 2 -16 -2 -9 -3 6 -10 12 -15 12 -6 0 -6 -7 0 -18 7
-14 6 -19 -4 -19 -8 0 -12 4 -9 8 2 4 -1 11 -7 15 -7 4 -9 3 -5 -4 3 -6 2 -13
-4 -17 -5 -3 -10 -12 -10 -18 0 -8 3 -8 9 2 5 8 11 9 15 3 3 -5 -1 -13 -10
-16 -8 -3 -12 -12 -9 -18 4 -7 -2 -3 -12 9 l-18 23 0 -24 c0 -13 5 -22 10 -19
6 2 2 -2 -7 -10 -14 -11 -15 -16 -5 -26 9 -10 8 -11 -7 -5 -13 5 -17 4 -12 -4
4 -8 2 -10 -7 -6 -8 3 -17 -2 -21 -11 -3 -9 -2 -14 3 -10 8 4 8 -3 2 -34 -1
-2 -8 3 -18 10 -15 13 -15 12 -3 -11 12 -23 12 -24 -4 -11 -15 13 -16 12 -7
-12 6 -15 7 -26 3 -26 -20 3 -33 -2 -27 -11 4 -6 10 -8 14 -6 4 3 8 -1 8 -9 0
-11 -5 -12 -21 -3 -20 11 -20 10 -6 -7 9 -11 10 -16 2 -11 -7 4 -12 2 -12 -4
0 -6 -4 -8 -10 -5 -7 4 -7 -2 0 -19 10 -27 -1 -43 -22 -30 -7 4 -8 3 -4 -4 4
-6 -1 -24 -11 -39 -10 -15 -12 -24 -5 -20 17 11 15 -4 -3 -30 -11 -16 -12 -24
-4 -29 8 -5 9 -3 4 6 -6 9 -4 11 5 5 10 -6 10 -11 -3 -20 -9 -7 -14 -15 -10
-18 3 -4 0 -7 -8 -8 -8 0 -6 -4 6 -9 17 -7 17 -9 3 -9 -10 -1 -18 -9 -18 -18
0 -15 2 -16 10 -3 5 8 10 10 10 4 0 -6 -8 -18 -17 -25 -10 -8 -14 -9 -10 -2 4
6 4 14 -1 17 -5 3 -9 -87 -10 -200 0 -112 3 -204 8 -204 13 0 20 -29 8 -36 -6
-4 -8 -3 -4 4 3 6 3 13 -2 16 -4 2 -8 -6 -8 -19 0 -20 3 -22 19 -13 10 5 21 7
25 4 3 -3 1 -6 -4 -6 -13 0 -10 -60 6 -95 7 -16 14 -34 14 -38 1 -4 8 -12 16
-17 10 -7 11 -10 3 -10 -7 0 -13 -5 -13 -11 0 -5 5 -7 12 -3 7 5 8 3 2 -7 -14
-22 -14 -41 0 -36 9 4 12 -4 10 -26 -3 -32 -3 -32 10 -8 8 15 16 20 20 12 4
-6 3 -11 -2 -11 -5 0 -9 -7 -9 -15 0 -8 3 -15 6 -15 4 0 12 -9 19 -21 8 -12 9
-18 3 -14 -19 11 -12 -5 14 -31 24 -24 33 -40 17 -30 -4 2 -8 -3 -8 -13 0 -10
6 -18 13 -18 7 0 9 5 6 11 -3 6 0 5 7 -1 18 -17 24 -56 8 -48 -7 4 -3 -2 9
-13 12 -11 20 -22 18 -24 -3 -3 2 -5 10 -6 8 -1 22 -3 30 -4 8 -1 13 -4 10 -6
-3 -3 1 -12 8 -20 9 -13 9 -14 0 -8 -7 4 -13 4 -13 0 0 -10 53 -53 60 -49 4 2
7 -2 7 -10 0 -8 -5 -12 -11 -9 -6 3 -3 -1 6 -9 10 -8 14 -18 10 -23 -4 -4 0
-3 9 4 12 9 18 9 27 0 16 -16 16 -41 0 -32 -8 4 -10 3 -5 -2 5 -5 13 -10 18
-10 5 -1 14 -2 20 -3 5 0 7 -7 3 -13 -6 -10 -4 -10 7 0 7 6 18 12 24 12 5 0 3
-5 -5 -10 -9 -6 -11 -10 -3 -10 7 0 10 -7 6 -18 -5 -14 -3 -13 11 3 11 14 15
15 14 5 -2 -8 3 -14 9 -12 7 1 13 -7 13 -18 0 -16 7 -20 33 -20 24 0 28 -3 17
-10 -13 -8 -12 -10 4 -10 11 0 16 -5 13 -13 -3 -8 1 -14 8 -14 8 0 12 8 9 20
-2 11 0 16 4 13 7 -7 8 -11 11 -37 1 -8 7 -7 18 2 10 8 14 9 10 2 -4 -6 -3
-14 3 -18 6 -4 7 -11 4 -17 -4 -6 -2 -8 4 -4 6 3 13 2 17 -4 3 -5 12 -10 18
-10 7 0 6 4 -3 10 -13 8 -13 10 1 10 9 0 21 -10 28 -22 6 -13 9 -15 7 -5 -3 9
-1 17 4 17 6 0 10 -9 10 -19 0 -15 5 -18 22 -13 16 4 19 2 13 -9 -8 -12 -6
-12 8 0 13 10 17 10 17 1 0 -9 4 -9 17 1 11 10 14 10 9 2 -4 -8 -1 -13 8 -13
10 0 13 -6 10 -15 -5 -13 -2 -14 20 -6 17 7 27 7 32 -1 5 -7 3 -8 -6 -3 -9 5
-11 4 -6 -4 6 -9 11 -9 22 0 10 8 14 8 14 0 0 -6 5 -11 11 -11 5 0 8 4 5 8 -2
4 6 8 19 8 13 0 21 -4 18 -9 -4 -6 6 -7 23 -3 l29 6 -28 -15 c-15 -9 -27 -17
-27 -18 0 -1 16 -3 35 -3 19 -1 35 3 35 8 0 5 -4 6 -10 3 -6 -4 -7 1 -3 11 5
15 7 14 17 -4 10 -19 20 -20 206 -18 193 1 195 1 194 23 0 20 1 20 23 6 12 -8
20 -20 16 -26 -3 -6 -1 -7 6 -3 9 6 9 11 1 21 -8 9 -8 15 0 20 5 3 10 1 10 -6
0 -10 3 -10 12 -1 16 16 31 15 22 0 -5 -8 -1 -8 10 1 15 13 19 13 27 0 5 -8 9
-9 9 -3 0 12 34 32 68 39 12 3 32 7 44 10 19 4 63 36 79 59 4 4 9 2 12 -5 4
-10 6 -8 6 4 1 10 6 15 11 12 6 -4 7 -11 4 -17 -4 -7 -2 -8 5 -4 6 4 9 11 6
16 -6 10 24 22 36 14 5 -3 9 -2 8 3 -4 21 2 43 12 43 5 0 8 -4 5 -8 -3 -5 2
-9 10 -9 8 0 13 6 10 13 -3 8 -1 16 4 19 4 3 11 -1 13 -7 4 -9 6 -8 6 3 1 15
53 72 65 70 3 -1 14 -1 24 -1 14 0 15 2 2 10 -13 8 -13 10 2 10 9 0 22 8 27
17 9 15 12 15 20 4 13 -20 21 9 9 33 -7 12 -6 22 3 30 9 8 10 8 5 -1 -4 -7 -4
-18 -1 -23 10 -16 37 10 30 28 -4 11 -2 12 7 4 10 -8 13 -4 14 14 1 14 -2 21
-9 17 -6 -3 -7 -1 -3 5 4 6 13 9 20 6 25 -9 47 33 24 47 -9 6 -9 9 -1 9 7 0
16 -7 21 -16 6 -11 11 -13 16 -5 4 6 2 11 -3 11 -6 0 -11 5 -11 11 0 5 4 8 9
5 5 -3 11 8 15 24 3 17 11 30 17 30 8 0 7 -6 -2 -17 -13 -16 -12 -17 4 -4 10
8 16 23 15 35 -2 13 5 24 19 31 20 10 20 12 5 23 -9 7 -11 10 -4 7 6 -3 12 -1
12 4 0 6 5 11 11 11 5 0 7 -5 3 -12 -4 -7 -3 -8 5 -4 9 6 9 11 0 22 -11 13 -5
19 15 15 5 -1 4 5 -4 13 -7 9 -9 16 -5 16 4 0 1 8 -6 17 -13 16 -12 17 3 4 10
-7 15 -18 11 -24 -4 -6 -1 -7 6 -2 8 4 11 20 9 36 -3 21 -1 26 7 19 9 -7 11
-2 10 20 -1 18 3 30 11 30 16 0 24 24 13 41 -11 18 -11 32 0 24 5 -3 12 -1 16
5 3 5 1 10 -4 10 -14 0 -14 27 -1 35 6 3 7 -1 4 -12 -5 -17 -5 -17 6 -1 6 10
10 21 10 24 -1 4 4 11 12 15 9 6 9 9 1 9 -6 0 -15 -4 -18 -10 -8 -13 -25 -13
-25 1 0 5 5 7 12 3 8 -5 9 -2 5 11 -6 14 -3 16 11 13 15 -4 19 0 18 16 -1 11
-5 24 -11 28 -6 5 -5 8 2 8 10 0 12 45 11 199 -1 110 -6 197 -11 194 -12 -7
-4 30 8 40 6 4 2 7 -9 5 -12 -2 -21 5 -27 20 -6 15 -5 21 1 17 6 -3 10 -1 10
4 0 6 -4 11 -8 11 -5 0 -16 16 -25 35 -18 37 -23 60 -8 37 7 -11 9 -10 14 3 4
9 3 13 -2 10 -5 -3 -12 -1 -16 5 -4 6 -11 7 -17 4 -7 -4 -8 -2 -4 5 4 6 12 9
17 6 5 -4 9 -1 9 4 0 6 -5 11 -11 11 -6 0 -9 7 -5 15 3 9 -3 19 -15 26 -11 5
-18 16 -16 22 2 6 -5 20 -14 31 -10 10 -16 23 -13 28 3 4 -2 11 -10 14 -9 3
-14 10 -11 14 2 4 -4 18 -15 30 -24 27 -26 38 -5 20 9 -7 15 -8 15 -2 0 15
-32 24 -40 12 -5 -8 -9 -6 -13 5 -4 9 -3 13 3 10 6 -3 10 -1 10 5 0 6 5 8 12
4 7 -4 8 -3 4 4 -4 6 -14 8 -23 5 -12 -5 -15 -2 -10 10 6 17 -24 42 -37 30 -3
-3 -6 -3 -6 2 0 4 8 14 18 22 9 8 11 11 4 8 -13 -7 -47 29 -47 50 0 6 -4 10
-10 10 -5 0 -16 4 -22 8 -7 5 -17 5 -23 2 -6 -3 -7 1 -4 9 3 9 10 13 15 10 5
-3 9 0 9 5 0 14 -13 14 -28 -1 -9 -9 -12 -8 -12 6 0 9 -4 15 -9 12 -5 -3 -11
1 -14 9 -4 10 -1 12 11 9 9 -3 1 4 -18 14 -19 11 -39 17 -45 14 -5 -3 -3 3 5
13 8 10 10 16 3 12 -6 -4 -13 -2 -15 5 -2 6 -11 12 -20 14 -11 1 -15 -3 -11
-14 4 -14 3 -14 -5 -3 -6 8 -9 23 -7 34 3 14 1 16 -8 8 -8 -6 -18 -6 -27 -1
-8 5 -19 6 -25 2 -5 -3 -5 1 2 9 8 10 9 19 1 29 -8 12 -9 12 -4 -2 3 -10 3
-18 -1 -18 -3 0 -12 8 -20 18 -8 9 -12 12 -9 6 3 -6 -1 -11 -9 -11 -11 0 -12
5 -3 21 6 12 7 18 3 14 -5 -4 -15 -2 -24 5 -14 10 -14 10 -3 -5 10 -12 10 -18
1 -24 -7 -4 -9 -3 -6 3 9 14 -15 34 -42 36 -12 1 -21 5 -21 10 0 5 -7 4 -15
-3 -13 -11 -14 -10 -9 5 6 14 4 16 -7 10 -11 -7 -11 -5 1 10 8 10 10 16 3 12
-6 -4 -14 -1 -16 5 -3 7 -6 4 -6 -7 -1 -18 -2 -18 -17 3 -8 12 -19 20 -24 17
-4 -3 -11 0 -13 5 -3 6 -4 5 -3 -2 2 -7 8 -13 14 -13 5 0 13 -2 16 -5 3 -4 -5
-6 -19 -6 -13 0 -22 3 -19 7 2 5 -5 13 -16 19 -11 6 -17 16 -14 22 4 7 3 8 -5
4 -6 -4 -9 -12 -6 -17 3 -5 -1 -6 -9 -3 -9 3 -14 10 -11 14 6 10 -15 8 -32 -3
-8 -5 -13 -3 -13 5 0 9 -3 9 -10 -2 -8 -12 -10 -12 -10 5 0 15 -2 17 -9 6 -7
-11 -10 -10 -13 5 -4 21 -58 29 -70 10 -6 -8 -8 -8 -8 1 0 17 -320 17 -320 0
0 -9 -2 -9 -8 -1 -8 14 -69 13 -82 0z m44 -12 c3 -8 -2 -10 -16 -6 -16 4 -19
2 -13 -8 5 -8 4 -11 -3 -6 -15 9 -5 33 13 33 8 0 16 -6 19 -13z m433 -6 c-3
-8 -6 -5 -6 6 -1 11 2 17 5 13 3 -3 4 -12 1 -19z m-577 -42 c0 -3 -4 -8 -10
-11 -5 -3 -10 -1 -10 4 0 6 5 11 10 11 6 0 10 -2 10 -4z m1130 -226 c0 -5 -2
-10 -4 -10 -3 0 -8 5 -11 10 -3 6 -1 10 4 10 6 0 11 -4 11 -10z m-1640 -74 c0
-2 -8 -10 -17 -17 -16 -13 -17 -12 -4 4 13 16 21 21 21 13z m1743 -21 c-3 -9
-8 -14 -10 -11 -3 3 -2 9 2 15 9 16 15 13 8 -4z m26 -43 c-1 -15 -2 -15 -6 1
-2 9 -9 14 -15 11 -7 -4 -8 -2 -4 5 10 15 26 4 25 -17z m-2015 -357 c-4 -8
-11 -15 -16 -15 -6 0 -5 6 2 15 7 8 14 15 16 15 2 0 1 -7 -2 -15z m881 -420
l0 -340 -70 0 -70 0 -3 168 -2 167 -31 0 c-17 0 -32 6 -35 15 -4 8 -14 15 -24
15 -10 0 -20 -7 -24 -15 -3 -9 -18 -15 -35 -15 l-31 0 -2 -167 -3 -168 -70 0
-70 0 -3 330 c-1 181 0 336 3 343 3 10 56 12 237 10 l233 -3 0 -340z m346 307
c9 -19 47 -64 83 -102 36 -37 66 -73 66 -79 0 -20 43 -11 84 17 22 15 58 46
79 69 22 24 54 52 71 63 18 11 38 31 44 45 11 25 15 26 79 23 l68 -3 0 -340 0
-340 -70 0 -70 0 -5 287 -5 286 -70 -60 c-38 -32 -69 -65 -67 -72 3 -16 -80
-86 -102 -86 -8 0 -19 6 -23 13 -4 7 -19 20 -33 28 -34 22 -140 125 -140 137
0 5 -9 12 -20 15 -19 5 -20 -1 -22 -271 l-3 -277 -65 0 -65 0 -3 330 c-1 181
0 336 3 343 3 9 26 12 86 10 81 -3 82 -3 100 -36z m1043 -43 c-3 -5 0 -16 6
-24 7 -8 8 -15 3 -15 -12 0 -34 46 -26 54 9 9 24 -4 17 -15z m-2319 -49 c-3
-5 -12 -10 -18 -10 -7 0 -6 4 3 10 19 12 23 12 15 0z m2316 -23 c-10 -9 -11
-8 -5 6 3 10 9 15 12 12 3 -3 0 -11 -7 -18z m-2321 -297 c0 -5 -5 -10 -11 -10
-5 0 -7 5 -4 10 3 6 8 10 11 10 2 0 4 -4 4 -10z m2300 -234 c0 -2 -7 -7 -16
-10 -8 -3 -12 -2 -9 4 6 10 25 14 25 6z m-2090 -326 c8 -5 11 -10 5 -10 -5 0
-17 5 -25 10 -8 5 -10 10 -5 10 6 0 17 -5 25 -10z m1795 -150 c3 -6 -1 -7 -9
-4 -18 7 -21 14 -7 14 6 0 13 -4 16 -10z m-1383 -204 c7 4 8 2 4 -5 -9 -13
-26 -5 -25 12 0 9 2 8 6 -1 2 -6 10 -9 15 -6z m1053 -27 c-10 -15 -45 -31 -45
-20 0 5 9 13 20 16 11 4 17 11 14 17 -4 7 -2 8 5 4 6 -4 9 -12 6 -17z m-81
-27 c3 -5 -1 -9 -9 -9 -8 0 -12 4 -9 9 3 4 7 8 9 8 2 0 6 -4 9 -8z m-39 -12
c-3 -5 -16 -15 -28 -21 l-22 -12 20 21 c21 22 41 30 30 12z m-180 -51 c11 -16
1 -19 -13 -3 -7 8 -8 14 -3 14 5 0 13 -5 16 -11z m-40 -9 c-3 -5 -12 -10 -18
-10 -7 0 -6 4 3 10 19 12 23 12 15 0z"/>
<path d="M640 1330 c0 -44 3 -80 6 -80 3 0 15 11 26 25 30 39 89 35 122 -7
l26 -33 0 88 0 87 -90 0 -90 0 0 -80z"/>
<path d="M466 2138 c3 -5 10 -6 15 -3 13 9 11 12 -6 12 -8 0 -12 -4 -9 -9z"/>
<path d="M2240 1745 c0 -2 6 -8 13 -14 10 -8 14 -7 14 2 0 8 -6 14 -14 14 -7
0 -13 -1 -13 -2z"/>
<path d="M2325 1560 c-3 -5 -1 -10 4 -10 6 0 11 5 11 10 0 6 -2 10 -4 10 -3 0
-8 -4 -11 -10z"/>
<path d="M15 940 c-3 -5 -1 -10 4 -10 6 0 11 5 11 10 0 6 -2 10 -4 10 -3 0 -8
-4 -11 -10z"/>
<path d="M30 863 c0 -7 5 -15 10 -18 6 -4 8 -11 5 -16 -4 -5 -2 -16 3 -25 6
-11 11 -13 16 -5 4 6 2 11 -4 11 -7 0 -10 6 -7 13 3 7 -1 21 -9 32 -8 10 -14
14 -14 8z"/>
<path d="M247 445 c3 -8 9 -12 14 -9 12 7 11 11 -5 17 -10 4 -13 1 -9 -8z"/>
<path d="M1922 257 c-17 -18 -19 -24 -8 -24 8 0 14 3 12 6 -6 10 21 30 30 23
4 -4 4 -1 0 6 -9 16 -9 16 -34 -11z"/>
<path d="M923 33 c4 -3 1 -13 -6 -22 -11 -14 -10 -14 5 -2 16 12 16 31 1 31
-4 0 -3 -3 0 -7z"/>
</g>
</svg>
